ply
format ascii 1.0
comment Created by Blender 2.82 (sub 7) - www.blender.org, source file: ''
element vertex 240
property float x
property float y
property float z
property float nx
property float ny
property float nz
property uchar red
property uchar green
property uchar blue
property uchar alpha
element face 120
property list uchar uint vertex_indices
end_header
-0.158000 -0.232500 0.020100 1.000000 0.000000 -0.000000 3 1 3 255
-0.158000 -0.232500 0.000100 1.000000 0.000000 -0.000000 24 23 24 255
-0.158000 0.227500 0.020100 1.000000 0.000000 -0.000000 3 2 3 255
-0.158000 0.227500 0.000100 1.000000 0.000000 -0.000000 28 28 28 255
-0.198000 -0.232500 0.020100 0.000000 -0.000000 1.000000 3 1 3 255
-0.158000 -0.232500 0.020100 0.000000 -0.000000 1.000000 3 1 3 255
-0.198000 0.227500 0.020100 0.000000 -0.000000 1.000000 3 1 3 255
-0.158000 0.227500 0.020100 0.000000 -0.000000 1.000000 3 2 3 255
-0.198000 -0.232500 0.000100 -1.000000 -0.000000 -0.000000 3 1 3 255
-0.198000 -0.232500 0.020100 -1.000000 -0.000000 -0.000000 3 1 3 255
-0.198000 0.227500 0.000100 -1.000000 -0.000000 -0.000000 3 1 3 255
-0.198000 0.227500 0.020100 -1.000000 0.000000 -0.000000 3 1 3 255
-0.158000 -0.232500 0.000100 0.000000 0.000000 -1.000000 24 23 24 255
-0.198000 -0.232500 0.000100 0.000000 0.000000 -1.000000 3 1 3 255
-0.158000 0.227500 0.000100 0.000000 0.000000 -1.000000 28 28 28 255
-0.198000 0.227500 0.000100 0.000000 0.000000 -1.000000 3 1 3 255
-0.198000 -0.232500 0.020100 -0.000000 -1.000000 0.000000 3 1 3 255
-0.198000 -0.232500 0.000100 -0.000000 -1.000000 0.000000 3 1 3 255
-0.158000 -0.232500 0.020100 -0.000000 -1.000000 0.000000 3 1 3 255
-0.158000 -0.232500 0.000100 0.000000 -1.000000 0.000000 24 23 24 255
-0.198000 0.227500 0.000100 0.000000 1.000000 0.000000 3 1 3 255
-0.198000 0.227500 0.020100 0.000000 1.000000 0.000000 3 1 3 255
-0.158000 0.227500 0.000100 0.000000 1.000000 0.000000 28 28 28 255
-0.158000 0.227500 0.020100 0.000000 1.000000 0.000000 3 2 3 255
-0.198000 0.227500 0.020100 -0.000000 -1.000000 0.000000 3 1 3 255
-0.198000 0.227500 0.000100 -0.000000 -1.000000 0.000000 3 1 3 255
0.202000 0.227500 0.020100 -0.000000 -1.000000 0.000000 3 1 3 255
0.202000 0.227500 0.000100 0.000000 -1.000000 0.000000 3 1 3 255
-0.198000 0.247500 0.020100 0.000000 -0.000000 1.000000 3 1 3 255
-0.198000 0.227500 0.020100 0.000000 -0.000000 1.000000 3 1 3 255
0.202000 0.247500 0.020100 0.000000 -0.000000 1.000000 3 1 3 255
0.202000 0.227500 0.020100 0.000000 -0.000000 1.000000 3 1 3 255
-0.198000 0.247500 0.000100 0.000000 1.000000 0.000000 12 11 12 255
-0.198000 0.247500 0.020100 0.000000 1.000000 0.000000 3 1 3 255
0.202000 0.247500 0.000100 0.000000 1.000000 0.000000 4 2 4 255
0.202000 0.247500 0.020100 0.000000 1.000000 0.000000 3 1 3 255
-0.198000 0.227500 0.000100 0.000000 0.000000 -1.000000 3 1 3 255
-0.198000 0.247500 0.000100 0.000000 0.000000 -1.000000 12 11 12 255
0.202000 0.227500 0.000100 0.000000 0.000000 -1.000000 3 1 3 255
0.202000 0.247500 0.000100 0.000000 0.000000 -1.000000 4 2 4 255
-0.198000 0.247500 0.020100 -1.000000 0.000000 0.000000 3 1 3 255
-0.198000 0.247500 0.000100 -1.000000 0.000000 0.000000 12 11 12 255
-0.198000 0.227500 0.020100 -1.000000 0.000000 0.000000 3 1 3 255
-0.198000 0.227500 0.000100 -1.000000 0.000000 0.000000 3 1 3 255
0.202000 0.247500 0.000100 1.000000 -0.000000 0.000000 4 2 4 255
0.202000 0.247500 0.020100 1.000000 -0.000000 0.000000 3 1 3 255
0.202000 0.227500 0.000100 1.000000 -0.000000 0.000000 3 1 3 255
0.202000 0.227500 0.020100 1.000000 -0.000000 0.000000 3 1 3 255
0.202000 -0.232500 0.020100 1.000000 0.000000 -0.000000 3 1 3 255
0.202000 -0.232500 0.000100 1.000000 0.000000 -0.000000 3 1 3 255
0.202000 0.227500 0.020100 1.000000 0.000000 -0.000000 3 1 3 255
0.202000 0.227500 0.000100 1.000000 0.000000 -0.000000 3 1 3 255
0.162000 -0.232500 0.020100 0.000000 -0.000000 1.000000 3 1 3 255
0.202000 -0.232500 0.020100 0.000000 -0.000000 1.000000 3 1 3 255
0.162000 0.227500 0.020100 0.000000 -0.000000 1.000000 3 1 3 255
0.202000 0.227500 0.020100 0.000000 -0.000000 1.000000 3 1 3 255
0.162000 -0.232500 0.000100 -1.000000 -0.000000 -0.000000 44 44 44 255
0.162000 -0.232500 0.020100 -1.000000 -0.000000 -0.000000 3 1 3 255
0.162000 0.227500 0.000100 -1.000000 -0.000000 -0.000000 207 207 207 255
0.162000 0.227500 0.020100 -1.000000 0.000000 -0.000000 3 1 3 255
0.202000 -0.232500 0.000100 0.000000 0.000000 -1.000000 3 1 3 255
0.162000 -0.232500 0.000100 0.000000 0.000000 -1.000000 44 44 44 255
0.202000 0.227500 0.000100 0.000000 0.000000 -1.000000 3 1 3 255
0.162000 0.227500 0.000100 0.000000 0.000000 -1.000000 207 207 207 255
0.162000 -0.232500 0.020100 -0.000000 -1.000000 0.000000 3 1 3 255
0.162000 -0.232500 0.000100 -0.000000 -1.000000 0.000000 44 44 44 255
0.202000 -0.232500 0.020100 -0.000000 -1.000000 0.000000 3 1 3 255
0.202000 -0.232500 0.000100 0.000000 -1.000000 0.000000 3 1 3 255
0.162000 0.227500 0.000100 0.000000 1.000000 0.000000 207 207 207 255
0.162000 0.227500 0.020100 0.000000 1.000000 0.000000 3 1 3 255
0.202000 0.227500 0.000100 0.000000 1.000000 0.000000 3 1 3 255
0.202000 0.227500 0.020100 0.000000 1.000000 0.000000 3 1 3 255
-0.198000 -0.252500 0.020100 -0.000000 -1.000000 0.000000 3 1 3 255
-0.198000 -0.252500 0.000100 -0.000000 -1.000000 0.000000 3 1 3 255
0.202000 -0.252500 0.020100 -0.000000 -1.000000 0.000000 3 1 3 255
0.202000 -0.252500 0.000100 0.000000 -1.000000 0.000000 3 1 3 255
-0.198000 -0.232500 0.020100 0.000000 -0.000000 1.000000 3 1 3 255
-0.198000 -0.252500 0.020100 0.000000 -0.000000 1.000000 3 1 3 255
0.202000 -0.232500 0.020100 0.000000 -0.000000 1.000000 3 1 3 255
0.202000 -0.252500 0.020100 0.000000 -0.000000 1.000000 3 1 3 255
-0.198000 -0.232500 0.000100 0.000000 1.000000 0.000000 3 1 3 255
-0.198000 -0.232500 0.020100 0.000000 1.000000 0.000000 3 1 3 255
0.202000 -0.232500 0.000100 0.000000 1.000000 0.000000 3 1 3 255
0.202000 -0.232500 0.020100 0.000000 1.000000 0.000000 3 1 3 255
-0.198000 -0.252500 0.000100 0.000000 0.000000 -1.000000 3 1 3 255
-0.198000 -0.232500 0.000100 0.000000 0.000000 -1.000000 3 1 3 255
0.202000 -0.252500 0.000100 0.000000 0.000000 -1.000000 3 1 3 255
0.202000 -0.232500 0.000100 0.000000 0.000000 -1.000000 3 1 3 255
-0.198000 -0.232500 0.020100 -1.000000 0.000000 0.000000 3 1 3 255
-0.198000 -0.232500 0.000100 -1.000000 0.000000 0.000000 3 1 3 255
-0.198000 -0.252500 0.020100 -1.000000 0.000000 0.000000 3 1 3 255
-0.198000 -0.252500 0.000100 -1.000000 0.000000 0.000000 3 1 3 255
0.202000 -0.232500 0.000100 1.000000 -0.000000 0.000000 3 1 3 255
0.202000 -0.232500 0.020100 1.000000 -0.000000 0.000000 3 1 3 255
0.202000 -0.252500 0.000100 1.000000 -0.000000 0.000000 3 1 3 255
0.202000 -0.252500 0.020100 1.000000 -0.000000 0.000000 3 1 3 255
-0.198000 -0.012500 0.540100 -0.000000 -1.000000 0.000000 3 1 3 255
-0.198000 -0.012500 0.520100 -0.000000 -1.000000 0.000000 3 1 3 255
0.202000 -0.012500 0.540100 -0.000000 -1.000000 0.000000 3 1 3 255
0.202000 -0.012500 0.520100 0.000000 -1.000000 0.000000 3 1 3 255
-0.198000 0.007500 0.540100 0.000000 -0.000000 1.000000 3 1 3 255
-0.198000 -0.012500 0.540100 0.000000 -0.000000 1.000000 3 1 3 255
0.202000 0.007500 0.540100 0.000000 -0.000000 1.000000 3 1 3 255
0.202000 -0.012500 0.540100 0.000000 -0.000000 1.000000 3 1 3 255
-0.198000 0.007500 0.520100 0.000000 1.000000 0.000000 3 1 3 255
-0.198000 0.007500 0.540100 0.000000 1.000000 0.000000 3 1 3 255
0.202000 0.007500 0.520100 0.000000 1.000000 0.000000 3 1 3 255
0.202000 0.007500 0.540100 0.000000 1.000000 0.000000 3 1 3 255
-0.198000 -0.012500 0.520100 -0.000000 -0.000000 -1.000000 3 1 3 255
-0.198000 0.007500 0.520100 -0.000000 -0.000000 -1.000000 3 1 3 255
0.202000 -0.012500 0.520100 -0.000000 -0.000000 -1.000000 3 1 3 255
0.202000 0.007500 0.520100 -0.000000 -0.000000 -1.000000 3 1 3 255
-0.198000 0.007500 0.540100 -1.000000 0.000000 0.000000 3 1 3 255
-0.198000 0.007500 0.520100 -1.000000 0.000000 0.000000 3 1 3 255
-0.198000 -0.012500 0.540100 -1.000000 0.000000 0.000000 3 1 3 255
-0.198000 -0.012500 0.520100 -1.000000 0.000000 0.000000 3 1 3 255
0.202000 0.007500 0.520100 1.000000 -0.000000 0.000000 3 1 3 255
0.202000 0.007500 0.540100 1.000000 -0.000000 0.000000 3 1 3 255
0.202000 -0.012500 0.520100 1.000000 -0.000000 0.000000 3 1 3 255
0.202000 -0.012500 0.540100 1.000000 -0.000000 0.000000 3 1 3 255
0.022000 -0.252500 0.040100 1.000000 0.000000 -0.000000 3 1 3 255
0.022000 -0.252500 0.020100 1.000000 0.000000 -0.000000 22 21 22 255
0.022000 0.247500 0.040100 1.000000 0.000000 -0.000000 5 4 5 255
0.022000 0.247500 0.020100 1.000000 0.000000 -0.000000 3 1 3 255
-0.018000 -0.252500 0.040100 0.000000 -0.000000 1.000000 3 1 3 255
0.022000 -0.252500 0.040100 0.000000 -0.000000 1.000000 3 1 3 255
-0.018000 0.247500 0.040100 0.000000 -0.000000 1.000000 3 1 3 255
0.022000 0.247500 0.040100 0.000000 -0.000000 1.000000 5 4 5 255
-0.018000 -0.252500 0.020100 -1.000000 -0.000000 -0.000000 3 1 3 255
-0.018000 -0.252500 0.040100 -1.000000 -0.000000 -0.000000 3 1 3 255
-0.018000 0.247500 0.020100 -1.000000 -0.000000 -0.000000 3 1 3 255
-0.018000 0.247500 0.040100 -1.000000 0.000000 -0.000000 3 1 3 255
0.022000 -0.252500 0.020100 0.000000 0.000000 -1.000000 22 21 22 255
-0.018000 -0.252500 0.020100 0.000000 0.000000 -1.000000 3 1 3 255
0.022000 0.247500 0.020100 0.000000 0.000000 -1.000000 3 1 3 255
-0.018000 0.247500 0.020100 0.000000 0.000000 -1.000000 3 1 3 255
-0.018000 -0.252500 0.040100 -0.000000 -1.000000 0.000000 3 1 3 255
-0.018000 -0.252500 0.020100 -0.000000 -1.000000 0.000000 3 1 3 255
0.022000 -0.252500 0.040100 -0.000000 -1.000000 0.000000 3 1 3 255
0.022000 -0.252500 0.020100 0.000000 -1.000000 0.000000 22 21 22 255
-0.018000 0.247500 0.020100 0.000000 1.000000 0.000000 3 1 3 255
-0.018000 0.247500 0.040100 0.000000 1.000000 0.000000 3 1 3 255
0.022000 0.247500 0.020100 0.000000 1.000000 0.000000 3 1 3 255
0.022000 0.247500 0.040100 0.000000 1.000000 0.000000 5 4 5 255
0.157000 0.152500 0.044100 1.000000 0.000000 -0.000000 165 159 166 255
0.157000 -0.157500 0.044100 1.000000 0.000000 -0.000000 164 158 165 255
0.157000 0.152500 0.040100 1.000000 0.000000 -0.000000 165 159 166 255
0.157000 -0.157500 0.040100 1.000000 -0.000000 0.000000 164 158 165 255
-0.153000 0.152500 0.044100 0.000000 1.000000 -0.000000 106 106 106 255
0.157000 0.152500 0.044100 0.000000 1.000000 -0.000000 165 159 166 255
-0.153000 0.152500 0.040100 0.000000 1.000000 -0.000000 76 76 76 255
0.157000 0.152500 0.040100 0.000000 1.000000 -0.000000 165 159 166 255
-0.153000 -0.157500 0.044100 -1.000000 -0.000000 0.000000 165 159 166 255
-0.153000 0.152500 0.044100 -1.000000 -0.000000 0.000000 106 106 106 255
-0.153000 -0.157500 0.040100 -1.000000 -0.000000 0.000000 166 160 167 255
-0.153000 0.152500 0.040100 -1.000000 -0.000000 0.000000 76 76 76 255
0.157000 -0.157500 0.044100 0.000000 -1.000000 0.000000 164 158 165 255
-0.153000 -0.157500 0.044100 0.000000 -1.000000 0.000000 165 159 166 255
0.157000 -0.157500 0.040100 0.000000 -1.000000 0.000000 164 158 165 255
-0.153000 -0.157500 0.040100 0.000000 -1.000000 0.000000 166 160 167 255
-0.153000 0.152500 0.044100 0.000000 -0.000000 1.000000 106 106 106 255
-0.153000 -0.157500 0.044100 0.000000 -0.000000 1.000000 165 159 166 255
0.157000 0.152500 0.044100 0.000000 -0.000000 1.000000 165 159 166 255
0.157000 -0.157500 0.044100 0.000000 -0.000000 1.000000 164 158 165 255
-0.153000 -0.157500 0.040100 0.000000 0.000000 -1.000000 166 160 167 255
-0.153000 0.152500 0.040100 0.000000 0.000000 -1.000000 76 76 76 255
0.157000 -0.157500 0.040100 0.000000 0.000000 -1.000000 164 158 165 255
0.157000 0.152500 0.040100 0.000000 0.000000 -1.000000 165 159 166 255
0.202000 -0.012500 0.340100 -0.000000 1.000000 0.000000 3 1 3 255
0.202000 -0.012500 0.320100 -0.000000 1.000000 0.000000 64 63 64 255
-0.198000 -0.012500 0.340100 -0.000000 1.000000 0.000000 4 2 4 255
-0.198000 -0.012500 0.320100 0.000000 1.000000 -0.000000 163 163 163 255
0.202000 -0.032500 0.340100 -0.000000 0.000000 1.000000 3 1 3 255
0.202000 -0.012500 0.340100 -0.000000 0.000000 1.000000 3 1 3 255
-0.198000 -0.032500 0.340100 -0.000000 0.000000 1.000000 3 1 3 255
-0.198000 -0.012500 0.340100 -0.000000 0.000000 1.000000 4 2 4 255
0.202000 -0.032500 0.320100 0.000000 -1.000000 0.000000 4 2 4 255
0.202000 -0.032500 0.340100 0.000000 -1.000000 0.000000 3 1 3 255
-0.198000 -0.032500 0.320100 0.000000 -1.000000 0.000000 3 1 3 255
-0.198000 -0.032500 0.340100 0.000000 -1.000000 -0.000000 3 1 3 255
0.202000 -0.012500 0.320100 0.000000 0.000000 -1.000000 64 63 64 255
0.202000 -0.032500 0.320100 0.000000 0.000000 -1.000000 4 2 4 255
-0.198000 -0.012500 0.320100 0.000000 0.000000 -1.000000 163 163 163 255
-0.198000 -0.032500 0.320100 0.000000 0.000000 -1.000000 3 1 3 255
0.202000 -0.032500 0.340100 1.000000 0.000000 -0.000000 3 1 3 255
0.202000 -0.032500 0.320100 1.000000 0.000000 -0.000000 4 2 4 255
0.202000 -0.012500 0.340100 1.000000 0.000000 -0.000000 3 1 3 255
0.202000 -0.012500 0.320100 1.000000 0.000000 -0.000000 64 63 64 255
-0.198000 -0.032500 0.320100 -1.000000 -0.000000 -0.000000 3 1 3 255
-0.198000 -0.032500 0.340100 -1.000000 -0.000000 -0.000000 3 1 3 255
-0.198000 -0.012500 0.320100 -1.000000 -0.000000 -0.000000 163 163 163 255
-0.198000 -0.012500 0.340100 -1.000000 -0.000000 -0.000000 4 2 4 255
-0.158000 0.007500 0.520100 1.000000 0.000000 -0.000000 3 1 3 255
-0.158000 -0.012500 0.520100 1.000000 0.000000 -0.000000 3 1 3 255
-0.158000 0.007500 0.020100 1.000000 0.000000 -0.000000 4 3 4 255
-0.158000 -0.012500 0.020100 1.000000 -0.000000 -0.000000 16 16 16 255
-0.198000 0.007500 0.520100 0.000000 1.000000 0.000000 3 1 3 255
-0.158000 0.007500 0.520100 0.000000 1.000000 0.000000 3 1 3 255
-0.198000 0.007500 0.020100 0.000000 1.000000 0.000000 3 1 3 255
-0.158000 0.007500 0.020100 0.000000 1.000000 0.000000 4 3 4 255
-0.198000 -0.012500 0.520100 -1.000000 0.000000 0.000000 3 1 3 255
-0.198000 0.007500 0.520100 -1.000000 0.000000 0.000000 3 1 3 255
-0.198000 -0.012500 0.020100 -1.000000 0.000000 0.000000 4 2 4 255
-0.198000 0.007500 0.020100 -1.000000 -0.000000 0.000000 3 1 3 255
-0.158000 -0.012500 0.520100 0.000000 -1.000000 -0.000000 3 1 3 255
-0.198000 -0.012500 0.520100 0.000000 -1.000000 -0.000000 3 1 3 255
-0.158000 -0.012500 0.020100 0.000000 -1.000000 -0.000000 16 16 16 255
-0.198000 -0.012500 0.020100 0.000000 -1.000000 -0.000000 4 2 4 255
-0.198000 0.007500 0.520100 0.000000 -0.000000 1.000000 3 1 3 255
-0.198000 -0.012500 0.520100 0.000000 -0.000000 1.000000 3 1 3 255
-0.158000 0.007500 0.520100 0.000000 -0.000000 1.000000 3 1 3 255
-0.158000 -0.012500 0.520100 0.000000 -0.000000 1.000000 3 1 3 255
-0.198000 -0.012500 0.020100 -0.000000 -0.000000 -1.000000 4 2 4 255
-0.198000 0.007500 0.020100 -0.000000 -0.000000 -1.000000 3 1 3 255
-0.158000 -0.012500 0.020100 -0.000000 -0.000000 -1.000000 16 16 16 255
-0.158000 0.007500 0.020100 -0.000000 -0.000000 -1.000000 4 3 4 255
0.202000 0.007500 0.520100 1.000000 0.000000 -0.000000 3 1 3 255
0.202000 -0.012500 0.520100 1.000000 0.000000 -0.000000 3 1 3 255
0.202000 0.007500 0.020100 1.000000 0.000000 -0.000000 3 1 3 255
0.202000 -0.012500 0.020100 1.000000 -0.000000 -0.000000 3 1 3 255
0.162000 0.007500 0.520100 0.000000 1.000000 0.000000 3 1 3 255
0.202000 0.007500 0.520100 0.000000 1.000000 0.000000 3 1 3 255
0.162000 0.007500 0.020100 0.000000 1.000000 0.000000 58 56 58 255
0.202000 0.007500 0.020100 0.000000 1.000000 0.000000 3 1 3 255
0.162000 -0.012500 0.520100 -1.000000 0.000000 0.000000 3 1 3 255
0.162000 0.007500 0.520100 -1.000000 0.000000 0.000000 3 1 3 255
0.162000 -0.012500 0.020100 -1.000000 0.000000 0.000000 44 42 44 255
0.162000 0.007500 0.020100 -1.000000 -0.000000 0.000000 58 56 58 255
0.202000 -0.012500 0.520100 0.000000 -1.000000 -0.000000 3 1 3 255
0.162000 -0.012500 0.520100 0.000000 -1.000000 -0.000000 3 1 3 255
0.202000 -0.012500 0.020100 0.000000 -1.000000 -0.000000 3 1 3 255
0.162000 -0.012500 0.020100 0.000000 -1.000000 -0.000000 44 42 44 255
0.162000 0.007500 0.520100 0.000000 -0.000000 1.000000 3 1 3 255
0.162000 -0.012500 0.520100 0.000000 -0.000000 1.000000 3 1 3 255
0.202000 0.007500 0.520100 0.000000 -0.000000 1.000000 3 1 3 255
0.202000 -0.012500 0.520100 0.000000 -0.000000 1.000000 3 1 3 255
0.162000 -0.012500 0.020100 -0.000000 -0.000000 -1.000000 44 42 44 255
0.162000 0.007500 0.020100 -0.000000 -0.000000 -1.000000 58 56 58 255
0.202000 -0.012500 0.020100 -0.000000 -0.000000 -1.000000 3 1 3 255
0.202000 0.007500 0.020100 -0.000000 -0.000000 -1.000000 3 1 3 255
3 0 1 2
3 2 1 3
3 4 5 6
3 6 5 7
3 8 9 10
3 10 9 11
3 12 13 14
3 14 13 15
3 16 17 18
3 18 17 19
3 20 21 22
3 22 21 23
3 24 25 26
3 26 25 27
3 28 29 30
3 30 29 31
3 32 33 34
3 34 33 35
3 36 37 38
3 38 37 39
3 40 41 42
3 42 41 43
3 44 45 46
3 46 45 47
3 48 49 50
3 50 49 51
3 52 53 54
3 54 53 55
3 56 57 58
3 58 57 59
3 60 61 62
3 62 61 63
3 64 65 66
3 66 65 67
3 68 69 70
3 70 69 71
3 72 73 74
3 74 73 75
3 76 77 78
3 78 77 79
3 80 81 82
3 82 81 83
3 84 85 86
3 86 85 87
3 88 89 90
3 90 89 91
3 92 93 94
3 94 93 95
3 96 97 98
3 98 97 99
3 100 101 102
3 102 101 103
3 104 105 106
3 106 105 107
3 108 109 110
3 110 109 111
3 112 113 114
3 114 113 115
3 116 117 118
3 118 117 119
3 120 121 122
3 122 121 123
3 124 125 126
3 126 125 127
3 128 129 130
3 130 129 131
3 132 133 134
3 134 133 135
3 136 137 138
3 138 137 139
3 140 141 142
3 142 141 143
3 144 145 146
3 146 145 147
3 148 149 150
3 150 149 151
3 152 153 154
3 154 153 155
3 156 157 158
3 158 157 159
3 160 161 162
3 162 161 163
3 164 165 166
3 166 165 167
3 168 169 170
3 170 169 171
3 172 173 174
3 174 173 175
3 176 177 178
3 178 177 179
3 180 181 182
3 182 181 183
3 184 185 186
3 186 185 187
3 188 189 190
3 190 189 191
3 192 193 194
3 194 193 195
3 196 197 198
3 198 197 199
3 200 201 202
3 202 201 203
3 204 205 206
3 206 205 207
3 208 209 210
3 210 209 211
3 212 213 214
3 214 213 215
3 216 217 218
3 218 217 219
3 220 221 222
3 222 221 223
3 224 225 226
3 226 225 227
3 228 229 230
3 230 229 231
3 232 233 234
3 234 233 235
3 236 237 238
3 238 237 239
